<svg width="668" height="1362" viewBox="0 0 668 1362" fill="none" xmlns="http://www.w3.org/2000/svg">
<path d="M662 326H665C666.657 326 668 327.343 668 329V418C668 419.657 666.657 421 665 421H662V326Z" fill="#313232"/>
<path d="M662 326H665C666.657 326 668 327.343 668 329V418C668 419.657 666.657 421 665 421H662V326Z" fill="url(#paint0_linear)"/>
<path d="M662 326H665C666.657 326 668 327.343 668 329V418C668 419.657 666.657 421 665 421H662V326Z" fill="url(#paint1_linear)"/>
<path d="M662 326H665C666.657 326 668 327.343 668 329V418C668 419.657 666.657 421 665 421H662V326Z" fill="url(#paint2_radial)"/>
<path d="M662 513H665C666.657 513 668 514.343 668 516V700C668 701.657 666.657 703 665 703H662V513Z" fill="#070707"/>
<rect width="664" height="1362" rx="89" fill="#0C0C0C"/>
<g filter="url(#filter0_f)">
<rect x="6.5" y="5.5" width="651" height="1351" rx="88.5" stroke="white" stroke-opacity="0.4"/>
</g>
<g filter="url(#filter1_f)">
<path fill-rule="evenodd" clip-rule="evenodd" d="M88 20.5C50.9969 20.5 21 50.4969 21 87.5V1264.5C21 1307.3 55.6979 1342 98.5 1342V1350C51.2797 1350 13 1311.72 13 1264.5V87.5C13 46.0787 46.5786 12.5 88 12.5H578.5C624.616 12.5 662 49.8842 662 96H654C654 54.3025 620.197 20.5 578.5 20.5H88Z" fill="url(#paint3_linear)"/>
</g>
<g filter="url(#filter2_f)">
<path fill-rule="evenodd" clip-rule="evenodd" d="M480 13.5H576C617.421 13.5 651 47.0786 651 88.5V1275C651 1316.42 617.421 1350 576 1350H89.5C48.0786 1350 14.5 1316.42 14.5 1275V1194.5H22.5V1275C22.5 1312 52.4969 1342 89.5 1342H576C613.003 1342 643 1312 643 1275V88.5C643 51.4969 613.003 21.5 576 21.5H480V13.5Z" fill="url(#paint4_linear)"/>
<path fill-rule="evenodd" clip-rule="evenodd" d="M480 13.5H576C617.421 13.5 651 47.0786 651 88.5V1275C651 1316.42 617.421 1350 576 1350H89.5C48.0786 1350 14.5 1316.42 14.5 1275V1194.5H22.5V1275C22.5 1312 52.4969 1342 89.5 1342H576C613.003 1342 643 1312 643 1275V88.5C643 51.4969 613.003 21.5 576 21.5H480V13.5Z" fill="url(#paint5_radial)"/>
</g>
<rect x="21" y="20" width="622" height="1322" rx="66" fill="black"/>
<rect x="32" y="34" width="598" height="1296" rx="59" fill="url(#paint6_linear)"/>
<circle cx="73" cy="74" r="22" fill="black"/>
<circle cx="73" cy="74" r="16" fill="#0B0B0B"/>
<circle cx="73" cy="74" r="9" fill="#020202"/>
<path d="M78.5 74C78.5 77.0376 76.0376 79.5 73 79.5C69.9624 79.5 67.5 77.0376 67.5 74C67.5 70.9624 69.9624 68.5 73 68.5C76.0376 68.5 78.5 70.9624 78.5 74Z" fill="url(#paint7_radial)" fill-opacity="0.5"/>
<path d="M78.5 74C78.5 77.0376 76.0376 79.5 73 79.5C69.9624 79.5 67.5 77.0376 67.5 74C67.5 70.9624 69.9624 68.5 73 68.5C76.0376 68.5 78.5 70.9624 78.5 74Z" fill="url(#paint8_radial)"/>
<path d="M78.5 74C78.5 77.0376 76.0376 79.5 73 79.5C69.9624 79.5 67.5 77.0376 67.5 74C67.5 70.9624 69.9624 68.5 73 68.5C76.0376 68.5 78.5 70.9624 78.5 74Z" fill="url(#paint9_radial)"/>
<path d="M78.5 74C78.5 77.0376 76.0376 79.5 73 79.5C69.9624 79.5 67.5 77.0376 67.5 74C67.5 70.9624 69.9624 68.5 73 68.5C76.0376 68.5 78.5 70.9624 78.5 74Z" stroke="#020202"/>
<defs>
<filter id="filter0_f" x="4" y="3" width="656" height="1356" filterUnits="userSpaceOnUse" color-interpolation-filters="sRGB">
<feFlood flood-opacity="0" result="BackgroundImageFix"/>
<feBlend mode="normal" in="SourceGraphic" in2="BackgroundImageFix" result="shape"/>
<feGaussianBlur stdDeviation="1" result="effect1_foregroundBlur"/>
</filter>
<filter id="filter1_f" x="11" y="10.5" width="653" height="1341.5" filterUnits="userSpaceOnUse" color-interpolation-filters="sRGB">
<feFlood flood-opacity="0" result="BackgroundImageFix"/>
<feBlend mode="normal" in="SourceGraphic" in2="BackgroundImageFix" result="shape"/>
<feGaussianBlur stdDeviation="1" result="effect1_foregroundBlur"/>
</filter>
<filter id="filter2_f" x="12.5" y="11.5" width="640.5" height="1340.5" filterUnits="userSpaceOnUse" color-interpolation-filters="sRGB">
<feFlood flood-opacity="0" result="BackgroundImageFix"/>
<feBlend mode="normal" in="SourceGraphic" in2="BackgroundImageFix" result="shape"/>
<feGaussianBlur stdDeviation="1" result="effect1_foregroundBlur"/>
</filter>
<linearGradient id="paint0_linear" x1="662" y1="375" x2="668" y2="375" gradientUnits="userSpaceOnUse">
<stop stop-color="#313131"/>
<stop offset="0.630208" stop-color="#717174"/>
<stop offset="1" stop-color="#444445"/>
</linearGradient>
<linearGradient id="paint1_linear" x1="665" y1="326" x2="665" y2="421" gradientUnits="userSpaceOnUse">
<stop stop-color="#343434"/>
<stop offset="0.140406" stop-color="#353535" stop-opacity="0"/>
<stop offset="0.885417" stop-color="#494949" stop-opacity="0.525253"/>
<stop offset="1" stop-color="#1B1B1B"/>
</linearGradient>
<radialGradient id="paint2_radial" cx="0" cy="0" r="1" gradientUnits="userSpaceOnUse" gradientTransform="translate(663.5 331) rotate(90) scale(3.5)">
<stop stop-color="white"/>
<stop offset="0.757464" stop-color="white" stop-opacity="0.35"/>
<stop offset="1" stop-color="white" stop-opacity="0"/>
</radialGradient>
<linearGradient id="paint3_linear" x1="17" y1="561.501" x2="314" y2="697.5" gradientUnits="userSpaceOnUse">
<stop stop-color="white" stop-opacity="0.54"/>
<stop offset="0.947121" stop-color="white" stop-opacity="0"/>
</linearGradient>
<linearGradient id="paint4_linear" x1="642.5" y1="721" x2="349" y2="583" gradientUnits="userSpaceOnUse">
<stop stop-color="white" stop-opacity="0.54"/>
<stop offset="1" stop-color="white" stop-opacity="0"/>
</linearGradient>
<radialGradient id="paint5_radial" cx="0" cy="0" r="1" gradientUnits="userSpaceOnUse" gradientTransform="translate(625.5 1327) rotate(-133.776) scale(364.243 172.32)">
<stop/>
<stop offset="1" stop-opacity="0"/>
</radialGradient>
<linearGradient id="paint6_linear" x1="331" y1="34" x2="331" y2="1330" gradientUnits="userSpaceOnUse">
<stop stop-color="#FF8080"/>
<stop offset="1" stop-color="#9563FF"/>
</linearGradient>
<radialGradient id="paint7_radial" cx="0" cy="0" r="1" gradientUnits="userSpaceOnUse" gradientTransform="translate(73 74) rotate(90) scale(6)">
<stop stop-color="#8EA1B9" stop-opacity="0"/>
<stop offset="0.395833" stop-color="#96A7BF" stop-opacity="0"/>
<stop offset="1" stop-color="#9BABC3"/>
</radialGradient>
<radialGradient id="paint8_radial" cx="0" cy="0" r="1" gradientUnits="userSpaceOnUse" gradientTransform="translate(73 71.5) rotate(141.34) scale(3.20156)">
<stop stop-color="#8EA1B9"/>
<stop offset="1" stop-color="#90A2BA" stop-opacity="0"/>
</radialGradient>
<radialGradient id="paint9_radial" cx="0" cy="0" r="1" gradientUnits="userSpaceOnUse" gradientTransform="translate(76 77.5) rotate(-140.194) scale(3.90512)">
<stop stop-color="#A8CEFE"/>
<stop offset="1" stop-color="#90A2BA" stop-opacity="0"/>
</radialGradient>
</defs>
</svg>
